<svg id="visual" viewBox="0 0 900 600" width="900" height="600" xmlns="http://www.w3.org/2000/svg" xmlns:xlink="http://www.w3.org/1999/xlink" version="1.1"><g transform="translate(450.7757082662745 289.581894032286)"><path d="M132.9 -229.3C166.1 -211 182.6 -163 201.4 -119.8C220.1 -76.7 241.1 -38.3 251.2 5.8C261.3 50 260.5 100 240 140.1C219.5 180.3 179.3 210.5 136 230.8C92.7 251.2 46.3 261.6 1.1 259.7C-44.2 257.8 -88.3 243.7 -126.9 220.6C-165.4 197.5 -198.3 165.5 -222.4 127.2C-246.5 89 -261.7 44.5 -258.7 1.8C-255.7 -41 -234.4 -82 -207.8 -115.9C-181.2 -149.8 -149.3 -176.7 -113.8 -193.7C-78.3 -210.7 -39.2 -217.8 5.3 -227.1C49.8 -236.3 99.7 -247.6 132.9 -229.3" fill="#202020"></path></g></svg>